<svg width="76" height="77" viewBox="0 0 76 77" fill="none" xmlns="http://www.w3.org/2000/svg">
<ellipse cx="38" cy="38.5" rx="38" ry="38.5" fill="#00C896"/>
<g clip-path="url(#clip0)">
<rect width="52" height="52" transform="translate(12 13)" fill="#F2ECFF"/>
<path d="M29.2538 35.7074C29.0011 34.9037 28.7736 34.1259 28.5208 33.3222C28.268 32.5185 28.0405 31.7667 27.8383 31.0148C27.6361 30.2889 27.4591 29.6148 27.2822 28.9926H27.2316C27.0041 30.1074 26.7261 31.2222 26.3722 32.337C25.993 33.5815 25.6138 34.8778 25.2094 36.1741C24.8808 37.4963 24.4763 38.7148 24.0972 39.8037H30.5177C30.3661 39.2593 30.1639 38.6111 29.9363 37.937C29.7089 37.237 29.4813 36.4852 29.2538 35.7074ZM50.9422 34.9556C49.5519 34.8778 48.2375 35.6296 47.5802 36.9259C47.2769 37.5222 47.1 38.1444 47.0241 38.7926H52.3552C53.0124 38.7926 53.4927 38.7926 53.796 38.7667C53.9983 38.7407 54.2005 38.6889 54.3774 38.5593V38.3C54.3676 37.8485 54.2708 37.4035 54.0925 36.9906C53.9143 36.5777 53.6581 36.2051 53.3387 35.8942C53.0194 35.5833 52.6432 35.3403 52.2319 35.1792C51.8206 35.0181 51.3823 34.9421 50.9422 34.9556ZM57.5902 8.66667H18.4097C12.4694 8.66667 7.66663 13.5926 7.66663 19.6852V58.3148C7.66663 64.4074 12.4694 69.3333 18.4097 69.3333H57.5902C63.5305 69.3333 68.3333 64.4074 68.3333 58.3148V19.6852C68.3333 13.5926 63.5305 8.66667 57.5902 8.66667ZM39.7947 51.473H34.5116C34.3347 51.4989 34.1577 51.3667 34.1072 51.1878L32.0344 44.9656H22.6311L20.71 51.0841C20.6594 51.3174 20.4572 51.473 20.2297 51.447H15.4775C15.1994 51.447 15.1236 51.2915 15.1994 50.9804L23.3388 27.0482C23.4147 26.7889 23.4905 26.5556 23.5916 26.2444C23.6927 25.7 23.7433 25.1296 23.7433 24.5593C23.718 24.4296 23.8191 24.3 23.9455 24.2741H30.4925C30.6694 24.2741 30.7958 24.3519 30.8211 24.4815L40.0475 51.0556C40.1233 51.3407 40.05 51.473 39.7947 51.473ZM59.6403 41.1259C59.5872 41.6159 59.5619 41.9815 59.5366 42.2148C59.5114 42.3963 59.3622 42.5519 59.1827 42.5519C59.0311 42.5519 58.753 42.5778 58.3486 42.6063C57.9467 42.6581 57.4639 42.6815 56.885 42.6815C56.3036 42.6815 55.6944 42.5778 55.0397 42.5778H47.0267C47.1252 43.3815 47.3805 44.1852 47.8103 44.8852C48.2576 45.583 48.8998 46.126 49.653 46.4433C50.6641 46.8841 51.7789 47.1174 52.8911 47.0915C53.7758 47.063 54.658 46.9878 55.5175 46.8063C56.2896 46.7052 57.0463 46.5049 57.7697 46.21C57.8961 46.1089 57.9719 46.1581 57.9719 46.4174V50.3867C57.9719 50.4878 57.9467 50.5941 57.9188 50.6952C57.8734 50.7673 57.8141 50.8291 57.7444 50.8767C56.9355 51.2396 56.1014 51.4989 55.2167 51.6544C54.0261 51.8878 52.8405 51.9915 51.6272 51.9656C49.7036 51.9656 48.0883 51.6544 46.7739 51.0582C45.5372 50.5058 44.4451 49.662 43.5863 48.5952C42.78 47.5841 42.1961 46.4433 41.8422 45.1989C41.4885 43.9691 41.3105 42.6933 41.3139 41.4111C41.3139 40.0137 41.5161 38.637 41.9458 37.2889C42.3503 35.9926 42.9822 34.8 43.8417 33.737C44.6758 32.7 45.7097 31.8704 46.8977 31.2741C48.0883 30.6778 49.5014 30.4704 51.1191 30.4704C52.467 30.4381 53.8051 30.7126 55.0372 31.2741C56.0736 31.7407 56.9836 32.4407 57.6914 33.3482C58.3486 34.2296 58.8794 35.2148 59.2105 36.3037C59.5366 37.3407 59.6883 38.4037 59.6883 39.4667C59.6883 40.0889 59.663 40.6333 59.6403 41.1259Z" fill="#00C896"/>
</g>
<defs>
<clipPath id="clip0">
<rect width="52" height="52" fill="white" transform="translate(12 13)"/>
</clipPath>
</defs>
</svg>
