<svg width="76" height="77" viewBox="0 0 76 77" fill="none" xmlns="http://www.w3.org/2000/svg">
<ellipse cx="38" cy="38.5" rx="38" ry="38.5" fill="#00C896"/>
<g clip-path="url(#clip0)">
<rect width="50" height="50" transform="translate(13 14)" fill="#F2ECFF"/>
<path d="M34.1719 35.6079C33.9115 34.7799 33.6771 33.9786 33.4167 33.1506C33.1562 32.3226 32.9219 31.5481 32.7135 30.7735C32.5052 30.0256 32.3229 29.3312 32.1406 28.6902H32.0885C31.8542 29.8387 31.5677 30.9872 31.2031 32.1357C30.8125 33.4177 30.4219 34.7532 30.0052 36.0887C29.6406 37.4509 29.25 38.7062 28.8594 39.828H35.474C35.3177 39.2644 35.1094 38.5994 34.875 37.9022C34.6406 37.1838 34.4062 36.4092 34.1719 35.6079ZM58.1823 7.75H17.8177C11.6979 7.75 6.75 12.8248 6.75 19.1015V58.8985C6.75 65.1752 11.6979 70.25 17.8177 70.25H58.1823C64.3021 70.25 69.25 65.1752 69.25 58.8985V19.1015C69.25 12.8248 64.3021 7.75 58.1823 7.75ZM45.0312 51.9006H39.5859C39.4062 51.9273 39.224 51.7938 39.1719 51.6068L37.0365 45.25H27.349L25.3698 51.5267C25.3177 51.7671 25.1094 51.9273 24.875 51.9033H19.9792C19.6927 51.9033 19.6146 51.7404 19.6927 51.4225L28.0781 26.6603C28.1562 26.3932 28.2344 26.0994 28.3385 25.7788C28.4427 25.2179 28.4948 24.6303 28.4948 24.0427C28.4688 23.9092 28.5729 23.7756 28.7031 23.7489H35.4479C35.6563 23.7489 35.7604 23.8291 35.7865 23.9626L45.2917 51.4733C45.3698 51.7644 45.2917 51.9006 45.0312 51.9006ZM53.8854 51.5C53.8854 51.7938 53.7839 51.9273 53.5495 51.9273H48.4427C48.1823 51.9273 48.0521 51.7644 48.0521 51.5V30.9338C48.0521 30.6667 48.1589 30.5598 48.3932 30.5598H53.5495C53.7839 30.5598 53.8854 30.6934 53.8854 30.9338V51.5ZM53.3411 27.3814C53.0336 27.7018 52.6628 27.9509 52.2536 28.1122C51.8444 28.2734 51.4063 28.343 50.9688 28.3162C50.1094 28.3429 49.276 27.9957 48.6484 27.3814C48.0518 26.7123 47.734 25.8304 47.763 24.9241C47.737 24.016 48.0755 23.1613 48.6979 22.547C49.3281 21.9327 50.1615 21.6122 51.0208 21.6122C52.0391 21.6122 52.8151 21.9327 53.3906 22.547C53.9635 23.188 54.276 24.0427 54.25 24.9241C54.276 25.8323 53.9635 26.7137 53.3411 27.3814Z" fill="#00C896"/>
</g>
<defs>
<clipPath id="clip0">
<rect width="50" height="50" fill="white" transform="translate(13 14)"/>
</clipPath>
</defs>
</svg>
