<svg width="61" height="61" viewBox="0 0 61 61" fill="none" xmlns="http://www.w3.org/2000/svg">
<path d="M24.257 27.661C24.8493 27.2321 25.1353 26.5241 25.1353 25.5506C25.1557 25.0876 25.0604 24.6315 24.8561 24.2162C24.6723 23.8826 24.4 23.6035 24.0664 23.406C23.7205 23.1963 23.3363 23.0574 22.9363 22.9975C22.5006 22.9158 22.058 22.875 21.6223 22.8818H16.8363V28.3078H22.0172C22.909 28.3146 23.6647 28.0968 24.257 27.661ZM25.0604 32.5628C24.3932 32.0522 23.5013 31.8003 22.3916 31.8003H16.8227V38.1999H22.2827C22.7933 38.1999 23.2631 38.1522 23.7192 38.0569C24.1508 37.9725 24.5622 37.8061 24.931 37.5667C25.2782 37.3421 25.5574 37.0357 25.7684 36.6409C25.9727 36.246 26.0748 35.7422 26.0748 35.1363C26.0748 33.9312 25.7344 33.0802 25.0604 32.5628ZM30.5 0C13.6569 0 0 13.6569 0 30.5C0 47.3431 13.6569 61 30.5 61C47.3431 61 61 47.3431 61 30.5C61 13.6569 47.3431 0 30.5 0ZM36.389 19.5323H45.8113V21.8266H36.389V19.5323ZM30.5 38.4518C30.0593 39.2883 29.43 40.0109 28.6618 40.5623C27.8585 41.1205 26.9666 41.529 26.0203 41.7673C25.0302 42.0326 24.0089 42.1631 22.9839 42.1554H11.7098V18.9331H22.6708C23.7805 18.9331 24.7881 19.0353 25.7071 19.2259C26.6194 19.4165 27.3955 19.7433 28.0491 20.1858C28.6959 20.6283 29.2065 21.2206 29.5673 21.9559C29.9213 22.6844 30.1051 23.5967 30.1051 24.6791C30.1051 25.8501 29.8396 26.8169 29.3086 27.5998C28.7708 28.3827 27.9946 29.0158 26.9394 29.5128C28.3759 29.9213 29.4311 30.6498 30.1256 31.671C30.8336 32.7058 31.1808 33.9449 31.1808 35.4018C31.1808 36.5864 30.9561 37.6008 30.5 38.4518ZM49.4808 34.8571H37.3353C37.3353 36.1779 37.7914 37.4442 38.479 38.125C39.1734 38.799 40.1674 39.1394 41.4677 39.1394C42.4073 39.1394 43.2038 38.9011 43.8846 38.4314C44.5586 37.9616 44.9671 37.4646 45.1169 36.9472H49.1881C48.5345 38.9692 47.5405 40.4125 46.1925 41.2839C44.8581 42.1554 43.2242 42.5911 41.3248 42.5911C39.9972 42.5911 38.8058 42.3732 37.7369 41.9579C36.7089 41.5563 35.783 40.9435 35.0205 40.1538C34.2687 39.3428 33.6876 38.3889 33.3117 37.3489C32.8964 36.1983 32.6922 34.9865 32.7058 33.7679C32.7058 32.5084 32.9169 31.3374 33.3253 30.2481C34.1083 28.1308 35.7354 26.4356 37.8118 25.5574C38.9215 25.0944 40.1129 24.8629 41.318 24.8766C42.7477 24.8766 43.9867 25.1489 45.0624 25.7071C46.0979 26.2402 46.9971 27.0042 47.6903 27.9402C48.3779 28.8729 48.8613 29.9349 49.1676 31.1331C49.4604 32.3109 49.5625 33.55 49.4808 34.8571ZM41.175 28.3487C40.4397 28.3487 39.8202 28.478 39.3436 28.7299C38.8671 28.9818 38.4722 29.295 38.1727 29.6558C37.8874 30.0042 37.6765 30.4074 37.5531 30.8404C37.4442 31.2012 37.3693 31.5689 37.3421 31.9433H44.865C44.756 30.7655 44.3475 29.8941 43.8029 29.2814C43.231 28.6754 42.3119 28.3487 41.175 28.3487Z" fill="#F2ECFF"/>
</svg>
