<svg width="76" height="77" viewBox="0 0 76 77" fill="none" xmlns="http://www.w3.org/2000/svg">
<ellipse cx="38" cy="38.5" rx="38" ry="38.5" fill="#00C896"/>
<path d="M27.8613 34.0371C26.722 34.0371 25.8398 34.4668 25.2148 35.3262C24.5898 36.179 24.2773 37.3704 24.2773 38.9004C24.2773 42.084 25.472 43.6758 27.8613 43.6758C28.8639 43.6758 30.0781 43.4251 31.5039 42.9238V45.4629C30.332 45.9512 29.0234 46.1953 27.5781 46.1953C25.5013 46.1953 23.9128 45.5671 22.8125 44.3105C21.7122 43.0475 21.1621 41.2376 21.1621 38.8809C21.1621 37.3965 21.4323 36.0977 21.9727 34.9844C22.513 33.8646 23.2878 33.0085 24.2969 32.416C25.3125 31.8171 26.5007 31.5176 27.8613 31.5176C29.248 31.5176 30.6413 31.8529 32.041 32.5234L31.0645 34.9844C30.5306 34.7305 29.9935 34.5091 29.4531 34.3203C28.9128 34.1315 28.3822 34.0371 27.8613 34.0371ZM43.3785 42.0352C43.3785 43.3242 42.913 44.3398 41.982 45.082C41.0576 45.8242 39.7685 46.1953 38.1148 46.1953C36.5914 46.1953 35.2437 45.9089 34.0719 45.3359V42.5234C35.0354 42.9531 35.8492 43.2559 36.5133 43.4316C37.1839 43.6074 37.7958 43.6953 38.3492 43.6953C39.0133 43.6953 39.5211 43.5684 39.8727 43.3145C40.2307 43.0605 40.4098 42.6829 40.4098 42.1816C40.4098 41.9017 40.3316 41.6543 40.1754 41.4395C40.0191 41.2181 39.788 41.0065 39.482 40.8047C39.1826 40.6029 38.5673 40.2806 37.6363 39.8379C36.7639 39.4277 36.1096 39.0339 35.6734 38.6562C35.2372 38.2786 34.8889 37.8392 34.6285 37.3379C34.3681 36.8366 34.2379 36.2507 34.2379 35.5801C34.2379 34.3171 34.6643 33.3242 35.5172 32.6016C36.3766 31.8789 37.5615 31.5176 39.0719 31.5176C39.8141 31.5176 40.5204 31.6055 41.191 31.7812C41.8681 31.957 42.5745 32.2044 43.3102 32.5234L42.3336 34.877C41.5719 34.5645 40.9404 34.3464 40.4391 34.2227C39.9443 34.099 39.456 34.0371 38.9742 34.0371C38.4013 34.0371 37.9618 34.1706 37.6559 34.4375C37.3499 34.7044 37.1969 35.0527 37.1969 35.4824C37.1969 35.7493 37.2587 35.9837 37.3824 36.1855C37.5061 36.3809 37.7014 36.5729 37.9684 36.7617C38.2418 36.944 38.8831 37.276 39.8922 37.7578C41.2268 38.3958 42.1415 39.0371 42.6363 39.6816C43.1311 40.3197 43.3785 41.1042 43.3785 42.0352ZM54.7941 42.0352C54.7941 43.3242 54.3286 44.3398 53.3977 45.082C52.4732 45.8242 51.1841 46.1953 49.5305 46.1953C48.007 46.1953 46.6594 45.9089 45.4875 45.3359V42.5234C46.451 42.9531 47.2648 43.2559 47.9289 43.4316C48.5995 43.6074 49.2115 43.6953 49.7648 43.6953C50.4289 43.6953 50.9367 43.5684 51.2883 43.3145C51.6464 43.0605 51.8254 42.6829 51.8254 42.1816C51.8254 41.9017 51.7473 41.6543 51.591 41.4395C51.4348 41.2181 51.2036 41.0065 50.8977 40.8047C50.5982 40.6029 49.9829 40.2806 49.052 39.8379C48.1796 39.4277 47.5253 39.0339 47.0891 38.6562C46.6529 38.2786 46.3046 37.8392 46.0441 37.3379C45.7837 36.8366 45.6535 36.2507 45.6535 35.5801C45.6535 34.3171 46.0799 33.3242 46.9328 32.6016C47.7922 31.8789 48.9771 31.5176 50.4875 31.5176C51.2297 31.5176 51.9361 31.6055 52.6066 31.7812C53.2837 31.957 53.9901 32.2044 54.7258 32.5234L53.7492 34.877C52.9875 34.5645 52.356 34.3464 51.8547 34.2227C51.3599 34.099 50.8716 34.0371 50.3898 34.0371C49.8169 34.0371 49.3775 34.1706 49.0715 34.4375C48.7655 34.7044 48.6125 35.0527 48.6125 35.4824C48.6125 35.7493 48.6743 35.9837 48.798 36.1855C48.9217 36.3809 49.1171 36.5729 49.384 36.7617C49.6574 36.944 50.2987 37.276 51.3078 37.7578C52.6424 38.3958 53.5572 39.0371 54.052 39.6816C54.5467 40.3197 54.7941 41.1042 54.7941 42.0352Z" fill="#F2ECFF"/>
</svg>
