<svg width="61" height="61" viewBox="0 0 61 61" fill="none" xmlns="http://www.w3.org/2000/svg">
<path d="M61 30.6889C61 13.7352 47.3379 0 30.5 0C13.6507 0 0 13.7352 0 30.6889C0 46.0027 11.1497 58.7002 25.7344 61V39.5619H17.9893V30.6908H25.7344V23.9259C25.7344 16.2364 30.2808 11.9898 37.25 11.9898C40.5879 11.9898 44.082 12.5882 44.082 12.5882V20.1396H40.2295C36.4475 20.1396 35.2656 22.5084 35.2656 24.9348V30.6889H43.7237L42.3645 39.5599H35.2656V60.9981C49.8389 58.6983 61 46.0008 61 30.687V30.6889Z" fill="#F2ECFF"/>
</svg>
