<svg width="76" height="77" viewBox="0 0 76 77" fill="none" xmlns="http://www.w3.org/2000/svg">
<ellipse cx="38" cy="38.5" rx="38" ry="38.5" fill="#00C896"/>
<g clip-path="url(#clip0)">
<path d="M38 39C38 28.3365 54.0005 28.3365 54.0005 39C54.0005 49.6635 38 49.6635 38 39ZM21.9995 55.0005C21.999 53.9499 22.2055 52.9094 22.6073 51.9386C23.0091 50.9678 23.5983 50.0857 24.3412 49.3427C25.0842 48.5998 25.9663 48.0106 26.9371 47.6088C27.9079 47.207 28.9484 47.0004 29.999 47.001H37.9985V55.0005C37.9985 65.664 21.998 65.664 21.998 55.0005H21.9995ZM38 15V31.0005H45.9995C56.663 31.0005 56.663 15 45.9995 15H38ZM21.9995 22.9995C21.999 24.0502 22.2055 25.0907 22.6073 26.0615C23.0091 27.0323 23.5983 27.9144 24.3412 28.6574C25.0842 29.4003 25.9663 29.9895 26.9371 30.3913C27.9079 30.7931 28.9484 30.9996 29.999 30.999H37.9985V14.9985H29.999C28.9484 14.9979 27.9079 15.2045 26.9371 15.6063C25.9663 16.0081 25.0842 16.5973 24.3412 17.3402C23.5983 18.0832 23.0091 18.9652 22.6073 19.9361C22.2055 20.9069 21.999 21.9474 21.9995 22.998V22.9995ZM21.9995 39C21.999 40.0507 22.2055 41.0912 22.6073 42.062C23.0091 43.0328 23.5983 43.9149 24.3412 44.6579C25.0842 45.4008 25.9663 45.99 26.9371 46.3918C27.9079 46.7936 28.9484 47.0001 29.999 46.9995H37.9985V30.999H29.999C28.9484 30.9984 27.9079 31.205 26.9371 31.6068C25.9663 32.0086 25.0842 32.5978 24.3412 33.3407C23.5983 34.0837 23.0091 34.9657 22.6073 35.9366C22.2055 36.9074 21.999 37.9479 21.9995 38.9985V39Z" fill="#F2ECFF"/>
</g>
<defs>
<clipPath id="clip0">
<rect width="48" height="48" fill="white" transform="translate(14 15)"/>
</clipPath>
</defs>
</svg>
