<svg width="78" height="77" viewBox="0 0 78 77" fill="none" xmlns="http://www.w3.org/2000/svg">
<ellipse cx="39" cy="38.5" rx="39" ry="38.5" fill="#00C896"/>
<path d="M22.4961 46H19.4785V39.8379H13.8242V46H10.7969V31.7227H13.8242V37.3184H19.4785V31.7227H22.4961V46ZM32.0172 46H28.9898V34.2422H25.1129V31.7227H35.8941V34.2422H32.0172V46ZM44.5363 46L41.0988 34.7988H41.0109C41.1346 37.0775 41.1965 38.5977 41.1965 39.3594V46H38.4914V31.7227H42.6125L45.9914 42.6406H46.05L49.634 31.7227H53.7551V46H50.9328V39.2422C50.9328 38.9232 50.9361 38.5553 50.9426 38.1387C50.9556 37.722 51.0012 36.6152 51.0793 34.8184H50.9914L47.3098 46H44.5363ZM57.7586 46V31.7227H60.7859V43.5H66.577V46H57.7586Z" fill="#F2ECFF"/>
</svg>
