<svg width="61" height="61" viewBox="0 0 61 61" fill="none" xmlns="http://www.w3.org/2000/svg">
<path d="M30.5 0C13.6551 0 0 13.6551 0 30.5C0 47.3449 13.6551 61 30.5 61C47.3449 61 61 47.3449 61 30.5C61 13.6551 47.3449 0 30.5 0ZM23.0339 43.1416H16.8576V23.2658H23.0339V43.1416ZM19.9076 20.8258C17.9569 20.8258 16.6956 19.4437 16.6956 17.7345C16.6956 15.9903 17.995 14.6495 19.987 14.6495C21.9791 14.6495 23.1991 15.9903 23.2372 17.7345C23.2372 19.4437 21.9791 20.8258 19.9076 20.8258ZM45.5911 43.1416H39.4149V32.1267C39.4149 29.5628 38.519 27.8217 36.2855 27.8217C34.5794 27.8217 33.5659 29.0004 33.1179 30.1346C32.9527 30.5381 32.9114 31.11 32.9114 31.6787V43.1384H26.732V29.6041C26.732 27.1228 26.6526 25.0481 26.5699 23.2626H31.936L32.2188 26.0235H32.3427C33.156 24.7272 35.1481 22.8146 38.4808 22.8146C42.5443 22.8146 45.5911 25.5374 45.5911 31.3896V43.1416Z" fill="#F2ECFF"/>
</svg>
