<svg width="222" height="29" viewBox="0 0 222 29" fill="none" xmlns="http://www.w3.org/2000/svg">
<path d="M16.9464 14.4102C16.9464 17.2461 16.2433 19.4258 14.837 20.9492C13.4308 22.4727 11.4152 23.2344 8.79015 23.2344C6.16515 23.2344 4.14953 22.4727 2.74328 20.9492C1.33703 19.4258 0.633904 17.2383 0.633904 14.3867C0.633904 11.5352 1.33703 9.35938 2.74328 7.85938C4.15734 6.35156 6.18078 5.59766 8.81359 5.59766C11.4464 5.59766 13.4581 6.35547 14.8487 7.87109C16.2472 9.38672 16.9464 11.5664 16.9464 14.4102ZM4.4425 14.4102C4.4425 16.3242 4.80578 17.7656 5.53234 18.7344C6.2589 19.7031 7.34484 20.1875 8.79015 20.1875C11.6886 20.1875 13.1378 18.2617 13.1378 14.4102C13.1378 10.5508 11.6964 8.62109 8.81359 8.62109C7.36828 8.62109 6.27843 9.10938 5.54406 10.0859C4.80968 11.0547 4.4425 12.4961 4.4425 14.4102ZM36.1764 23H31.5592L24.1061 10.0391H24.0006C24.1491 12.3281 24.2233 13.9609 24.2233 14.9375V23H20.9772V5.86719H25.5592L33.0006 18.6992H33.0827C32.9655 16.4727 32.9069 14.8984 32.9069 13.9766V5.86719H36.1764V23ZM55.1955 14.2695C55.1955 17.0898 54.3908 19.25 52.7814 20.75C51.1798 22.25 48.8634 23 45.8322 23H40.9806V5.86719H46.3595C49.1564 5.86719 51.3283 6.60547 52.8752 8.08203C54.422 9.55859 55.1955 11.6211 55.1955 14.2695ZM51.422 14.3633C51.422 10.6836 49.797 8.84375 46.547 8.84375H44.6134V20H46.172C49.672 20 51.422 18.1211 51.422 14.3633ZM62.8591 13.4727H64.0309C65.1794 13.4727 66.027 13.2812 66.5739 12.8984C67.1208 12.5156 67.3942 11.9141 67.3942 11.0938C67.3942 10.2812 67.113 9.70312 66.5505 9.35938C65.9958 9.01562 65.1325 8.84375 63.9606 8.84375H62.8591V13.4727ZM62.8591 16.4258V23H59.2262V5.86719H64.2184C66.5466 5.86719 68.2692 6.29297 69.3864 7.14453C70.5036 7.98828 71.0622 9.27344 71.0622 11C71.0622 12.0078 70.7848 12.9062 70.2302 13.6953C69.6755 14.4766 68.8903 15.0898 67.8747 15.5352C70.4528 19.3867 72.1325 21.875 72.9137 23H68.8825L64.7927 16.4258H62.8591ZM70.0309 0.652344V0.96875C69.3747 1.625 68.7692 2.28125 68.2145 2.9375C67.6677 3.58594 67.2731 4.10547 67.0309 4.49609H62.8473C62.6208 4.12891 62.2966 3.69141 61.8747 3.18359C61.4528 2.66797 60.777 1.92969 59.8473 0.96875V0.652344H62.2262C63.3747 1.37891 64.2692 2.06641 64.9098 2.71484C65.5661 2.03516 66.4802 1.34766 67.652 0.652344H70.0309ZM85.4172 23H75.55V5.86719H85.4172V8.84375H79.1828V12.6055H84.9836V15.582H79.1828V20H85.4172V23ZM87.6902 28.0391C86.8698 28.0391 86.155 27.9531 85.5456 27.7812V24.7578C86.1706 24.9141 86.7409 24.9922 87.2566 24.9922C88.0534 24.9922 88.6237 24.7422 88.9675 24.2422C89.3112 23.75 89.4831 22.9766 89.4831 21.9219V5.86719H93.1159V21.8984C93.1159 23.8984 92.6589 25.4219 91.7448 26.4688C90.8308 27.5156 89.4792 28.0391 87.6902 28.0391ZM114.736 18.2422C114.736 19.7891 114.177 21.0078 113.06 21.8984C111.951 22.7891 110.404 23.2344 108.42 23.2344C106.592 23.2344 104.974 22.8906 103.568 22.2031V18.8281C104.724 19.3438 105.701 19.707 106.498 19.918C107.302 20.1289 108.037 20.2344 108.701 20.2344C109.498 20.2344 110.107 20.082 110.529 19.7773C110.959 19.4727 111.174 19.0195 111.174 18.418C111.174 18.082 111.08 17.7852 110.892 17.5273C110.705 17.2617 110.427 17.0078 110.06 16.7656C109.701 16.5234 108.963 16.1367 107.845 15.6055C106.799 15.1133 106.013 14.6406 105.49 14.1875C104.967 13.7344 104.549 13.207 104.236 12.6055C103.924 12.0039 103.767 11.3008 103.767 10.4961C103.767 8.98047 104.279 7.78906 105.302 6.92188C106.334 6.05469 107.756 5.62109 109.568 5.62109C110.459 5.62109 111.306 5.72656 112.111 5.9375C112.924 6.14844 113.771 6.44531 114.654 6.82812L113.482 9.65234C112.568 9.27734 111.81 9.01562 111.209 8.86719C110.615 8.71875 110.029 8.64453 109.451 8.64453C108.763 8.64453 108.236 8.80469 107.869 9.125C107.502 9.44531 107.318 9.86328 107.318 10.3789C107.318 10.6992 107.392 10.9805 107.541 11.2227C107.689 11.457 107.924 11.6875 108.244 11.9141C108.572 12.1328 109.342 12.5312 110.552 13.1094C112.154 13.875 113.252 14.6445 113.845 15.418C114.439 16.1836 114.736 17.125 114.736 18.2422ZM125.599 8.64453C124.232 8.64453 123.173 9.16016 122.423 10.1914C121.673 11.2148 121.298 12.6445 121.298 14.4805C121.298 18.3008 122.732 20.2109 125.599 20.2109C126.802 20.2109 128.259 19.9102 129.97 19.3086V22.3555C128.564 22.9414 126.993 23.2344 125.259 23.2344C122.767 23.2344 120.861 22.4805 119.54 20.9727C118.22 19.457 117.56 17.2852 117.56 14.457C117.56 12.6758 117.884 11.1172 118.532 9.78125C119.181 8.4375 120.111 7.41016 121.322 6.69922C122.54 5.98047 123.966 5.62109 125.599 5.62109C127.263 5.62109 128.935 6.02344 130.615 6.82812L129.443 9.78125C128.802 9.47656 128.157 9.21094 127.509 8.98438C126.861 8.75781 126.224 8.64453 125.599 8.64453ZM148.145 23H144.524V15.6055H137.739V23H134.106V5.86719H137.739V12.582H144.524V5.86719H148.145V23ZM169.649 23H165.512L163.192 14C163.106 13.6797 162.957 13.0195 162.746 12.0195C162.543 11.0117 162.426 10.3359 162.395 9.99219C162.348 10.4141 162.231 11.0938 162.043 12.0312C161.856 12.9609 161.711 13.625 161.61 14.0234L159.301 23H155.176L150.805 5.86719H154.379L156.571 15.2188C156.953 16.9453 157.231 18.4414 157.403 19.707C157.45 19.2617 157.555 18.5742 157.719 17.6445C157.891 16.707 158.051 15.9805 158.2 15.4648L160.696 5.86719H164.129L166.625 15.4648C166.735 15.8945 166.871 16.5508 167.035 17.4336C167.2 18.3164 167.325 19.0742 167.41 19.707C167.489 19.0977 167.614 18.3398 167.785 17.4336C167.957 16.5195 168.114 15.7812 168.254 15.2188L170.434 5.86719H174.008L169.649 23ZM187.133 23L185.89 18.9219H179.644L178.402 23H174.488L180.535 5.79688H184.976L191.047 23H187.133ZM185.023 15.875C183.875 12.1797 183.226 10.0898 183.078 9.60547C182.937 9.12109 182.836 8.73828 182.773 8.45703C182.515 9.45703 181.777 11.9297 180.558 15.875H185.023ZM197.327 13.4727H198.499C199.648 13.4727 200.495 13.2812 201.042 12.8984C201.589 12.5156 201.863 11.9141 201.863 11.0938C201.863 10.2812 201.581 9.70312 201.019 9.35938C200.464 9.01562 199.601 8.84375 198.429 8.84375H197.327V13.4727ZM197.327 16.4258V23H193.695V5.86719H198.687C201.015 5.86719 202.738 6.29297 203.855 7.14453C204.972 7.98828 205.531 9.27344 205.531 11C205.531 12.0078 205.253 12.9062 204.699 13.6953C204.144 14.4766 203.359 15.0898 202.343 15.5352C204.921 19.3867 206.601 21.875 207.382 23H203.351L199.261 16.4258H197.327ZM221.186 23H208.436V20.6445L216.651 8.86719H208.659V5.86719H220.964V8.21094L212.761 20H221.186V23Z" fill="#F2ECFF"/>
</svg>
