<svg width="78" height="77" viewBox="0 0 78 77" fill="none" xmlns="http://www.w3.org/2000/svg">
<ellipse cx="39" cy="38.5" rx="39" ry="38.5" fill="#00C896"/>
<g clip-path="url(#clip0)">
<rect width="54" height="54" transform="translate(12 12)" fill="#F2ECFF"/>
<path d="M32.9531 28.6741C31.9125 28.2414 30.7875 28.0683 29.6344 28.0971C28.9031 28.0971 28.2562 28.0971 27.7219 28.126C27.1594 28.0971 26.7656 28.126 26.5688 28.1548V37.8475C26.9625 37.8764 27.3281 37.9052 27.6656 37.9052H29.1562C30.2531 37.9052 31.35 37.7322 32.3906 37.386C33.2906 37.1264 34.0781 36.5783 34.6969 35.8571C35.2875 35.1359 35.5687 34.1551 35.5687 32.8858C35.5969 31.9915 35.3719 31.0973 34.9219 30.3184C34.4529 29.5694 33.7632 28.9934 32.9531 28.6741ZM60.7969 5.25H17.2031C10.5938 5.25 5.25 10.731 5.25 17.5101V60.4899C5.25 67.269 10.5938 72.75 17.2031 72.75H60.7969C67.4062 72.75 72.75 67.269 72.75 60.4899V17.5101C72.75 10.731 67.4062 5.25 60.7969 5.25ZM40.0097 38.8572C38.8875 40.4727 37.3125 41.6842 35.4844 42.3766C33.5719 43.0978 31.4625 43.3574 29.1562 43.3574C28.4813 43.3574 28.0312 43.3574 27.75 43.3285C27.4688 43.2997 27.075 43.2997 26.5406 43.2997V52.5568C26.5688 52.7588 26.4281 52.9347 26.2313 52.9636H20.775C20.55 52.9636 20.4375 52.8453 20.4375 52.5857V22.9046C20.4375 22.7027 20.5219 22.5873 20.7188 22.5873C21.1969 22.5873 21.6469 22.5873 22.2938 22.5584C22.9688 22.5296 23.6719 22.5296 24.4312 22.5007C25.1906 22.4719 26.0063 22.4719 26.8781 22.443C27.75 22.4142 28.5938 22.4142 29.4375 22.4142C31.7438 22.4142 33.6562 22.7027 35.2312 23.3085C36.6375 23.7989 37.9313 24.6066 39 25.674C39.9 26.5971 40.6031 27.7221 41.0531 28.9626C41.4722 30.1741 41.6972 31.4146 41.6972 32.7127C41.7 35.1936 41.1375 37.2418 40.0097 38.8572ZM59.9531 50.0788C59.1656 51.2327 58.0659 52.1241 56.8031 52.6491C55.425 53.2521 53.7375 53.5665 51.7097 53.5665C50.4187 53.5665 49.1503 53.454 47.8875 53.1944C46.9031 53.0184 45.9188 52.704 45.0187 52.2712C44.8219 52.1587 44.6784 51.9568 44.7066 51.726V46.7066C44.7066 46.6229 44.7375 46.5047 44.8219 46.447C44.9034 46.3893 44.9906 46.4181 45.075 46.4758C46.1719 47.1393 47.325 47.6037 48.5625 47.8893C49.6284 48.1778 50.7534 48.322 51.8812 48.322C52.95 48.322 53.7094 48.1749 54.2156 47.9153C54.6656 47.7134 54.975 47.2229 54.975 46.7037C54.975 46.2969 54.75 45.9248 54.3 45.5498C53.85 45.1777 52.9247 44.745 51.5466 44.1911C50.1122 43.6718 48.7931 42.9795 47.5528 42.117C46.6727 41.4704 45.942 40.6333 45.4125 39.6649C44.9655 38.7522 44.7443 37.7407 44.7684 36.7196C44.7684 35.4792 45.1059 34.2964 45.7275 33.2291C46.4306 32.0752 47.4684 31.1521 48.6778 30.5751C49.9969 29.8857 51.6562 29.5683 53.6531 29.5683C54.8062 29.5683 55.9875 29.6549 57.1406 29.828C57.9844 29.9434 58.8 30.1741 59.5594 30.4915C59.6691 30.5203 59.7844 30.6357 59.8406 30.7511C59.8687 30.8665 59.8969 30.9819 59.8969 31.0973V35.7994C59.8969 35.9148 59.8406 36.0302 59.7562 36.0879C59.5031 36.1455 59.3625 36.1455 59.25 36.0879C58.4063 35.6263 57.5062 35.309 56.55 35.107C55.5094 34.8763 54.4688 34.732 53.4 34.732C52.8375 34.7032 52.2469 34.7897 51.7097 34.934C51.3469 35.0205 51.0347 35.2224 50.8378 35.5109C50.6972 35.7417 50.6128 36.0302 50.6128 36.2898C50.6128 36.5494 50.7253 36.809 50.8969 37.0398C51.15 37.3571 51.4847 37.6168 51.8531 37.8187C52.4972 38.1649 53.175 38.4822 53.8472 38.7707C55.3687 39.2899 56.8312 40.0111 58.1812 40.8765C59.1094 41.4794 59.8687 42.29 60.4003 43.2709C60.8503 44.1882 61.0753 45.2036 61.0472 46.2393C61.0781 47.598 60.6844 48.9509 59.9531 50.0788Z" fill="#00C896"/>
</g>
<defs>
<clipPath id="clip0">
<rect width="54" height="54" fill="white" transform="translate(12 12)"/>
</clipPath>
</defs>
</svg>
